<?xml version="1.0" encoding="utf-8"?>
<svg width="100%" height="100%" viewBox="0 0 800 650" preserveAspectRatio="xMidYMid meet" version="1.2" xmlns="http://www.w3.org/2000/svg">
	<ellipse cx="0" cy="0" rx="300" ry="160" stroke="#C00010" fill="none" stroke-width="4" stroke-dasharray="15,10,4,10" transform="translate(350, 300) rotate(45)" />
	<ellipse cx="0" cy="0" rx="300" ry="160" stroke="blue" fill="none" stroke-width="4" stroke-dasharray="" transform="translate(450, 300) rotate(-45)" />
	<ellipse cx="0" cy="0" rx="300" ry="160" stroke="black" fill="none" stroke-width="4" stroke-dasharray="3" transform="translate(250, 400) rotate(45)" />
	<ellipse cx="0" cy="0" rx="300" ry="160" stroke="black" fill="none" stroke-width="8" stroke-dasharray="8" transform="translate(550, 400) rotate(-45)" />
	<text font-family="Source Sans Pro, sans-serif" text-anchor="middle" x="225" y="150" font-size="2.5em"><tspan>S</tspan></text>
	<text font-family="Source Sans Pro, sans-serif" text-anchor="middle" x="575" y="150" font-size="2.5em"><tspan>S</tspan></text>
	<text font-family="Source Sans Pro, sans-serif" text-anchor="middle" x="100" y="350" font-size="2.5em"><tspan>C</tspan></text>
	<text font-family="Source Sans Pro, sans-serif" text-anchor="middle" x="730" y="350" font-size="2.5em"><tspan>D</tspan></text>
	<text font-family="Source Sans Pro, sans-serif" text-anchor="middle" x="185" y="250" font-size="1.8em"><tspan>C</tspan></text>
	<text font-family="Source Sans Pro, sans-serif" text-anchor="middle" x="400" y="225" font-size="1.8em"><tspan>S</tspan></text>
	<text font-family="Source Sans Pro, sans-serif" text-anchor="middle" x="615" y="250" font-size="1.8em"><tspan>P</tspan></text>
	<text font-family="Source Sans Pro, sans-serif" text-anchor="middle" x="400" y="590" font-size="1.8em"><tspan>B</tspan></text>
	<text font-family="Source Sans Pro, sans-serif" text-anchor="middle" x="260" y="495" font-size="1.8em"><tspan>D</tspan></text>
	<text font-family="Source Sans Pro, sans-serif" text-anchor="middle" x="530" y="495" font-size="1.8em"><tspan>B</tspan></text>
	<text font-family="Source Sans Pro, sans-serif" text-anchor="middle" x="305" y="350" font-size="1.8em"><tspan>P</tspan></text>
	<text font-family="Source Sans Pro, sans-serif" text-anchor="middle" x="500" y="350" font-size="1.8em"><tspan>S</tspan></text>
	<text font-family="Source Sans Pro, sans-serif" text-anchor="middle" x="345" y="530" font-size="1.6em"><tspan>P</tspan></text>
	<text font-family="Source Sans Pro, sans-serif" text-anchor="middle" x="470" y="530" font-size="1.6em"><tspan>B</tspan></text>
	<text font-family="Source Sans Pro, sans-serif" text-anchor="middle" x="400" y="450" font-size="1.8em"><tspan>D</tspan></text>
	<text font-family="Source Sans Pro, sans-serif" text-anchor="middle" x="400" y="80" font-size="2.5em"><tspan>C</tspan></text>
	<!-- Stars for the dotted zone -->
	<g transform="translate(0.000000,235.000000) scale(0.10000,0.10000)" fill="#000000" stroke="none">
	<polygon fill="none" stroke="black" stroke-width="20"
            points="350,75  379,161 469,161 397,215
                    423,301 350,250 277,301 303,215
                    231,161 321,161" />
	</g>
	<g transform="translate(200.000000,235.000000) scale(0.10000,0.10000)" fill="#000000" stroke="none">
	<polygon fill="#C00010" stroke="#C00010" stroke-width="20"
            points="350,75  379,161 469,161 397,215
                    423,301 350,250 277,301 303,215
                    231,161 321,161" />
	</g>
	<g transform="translate(260.000000,270.000000) scale(0.10000,0.10000)" fill="#000000" stroke="none">
	<polygon fill="#C00010" stroke="blue" stroke-width="20"
            points="350,75  379,161 469,161 397,215
                    423,301 350,250 277,301 303,215
                    231,161 321,161" />
	</g>
	<g transform="translate(367.000000,355.000000) scale(0.10000,0.10000)" fill="#000000" stroke="none">
	<polygon fill="#C00010" stroke="blue" stroke-width="20"
            points="350,75  379,161 469,161 397,215
                    423,301 350,250 277,301 303,215
                    231,161 321,161" />
	</g>
	<g transform="translate(250.000000,470.000000) scale(0.080000,0.080000)" fill="#000000" stroke="none">
	<polygon fill="blue" stroke="blue" stroke-width="20"
            points="350,75  379,161 469,161 397,215
                    423,301 350,250 277,301 303,215
                    231,161 321,161" />
	</g>
	<g transform="translate(305.000000,490.000000) scale(0.060000,0.060000)" fill="#000000" stroke="none">
	<polygon fill="blue" stroke="blue" stroke-width="20"
            points="350,75  379,161 469,161 397,215
                    423,301 350,250 277,301 303,215
                    231,161 321,161" />
	</g>
	<g transform="translate(455.000000,490.000000) scale(0.060000,0.060000)" fill="#000000" stroke="none">
	<polygon fill="#C00010" stroke="#C00010" stroke-width="20"
            points="350,75  379,161 469,161 397,215
                    423,301 350,250 277,301 303,215
                    231,161 321,161" />
	</g>
	<g transform="translate(400.000000,555.000000) scale(0.10000,0.10000)" fill="#000000" stroke="none">
	<polygon fill="none" stroke="black" stroke-width="20"
            points="350,75  379,161 469,161 397,215
                    423,301 350,250 277,301 303,215
                    231,161 321,161" />
	</g>

	<!-- Lightbulbs for the fat dotted zone -->
	<g transform="translate(400.000000,595.000000) scale(0.05000,0.05000)" fill="#000000" stroke="none">
	<path d="M256,32c77.312,0,140,62.688,140,140c0,76.125-45.875,85-54.5,168c0,7.75-6.25,14-14,14h-143c-7.75,0-14-6.25-14-14h-0.031
		C161.875,257,116,248.125,116,172C116,94.688,178.688,32,256,32 M326,368c7.75,0,14,6.25,14,14s-6.25,14-14,14H186
		c-7.75,0-14-6.25-14-14s6.25-14,14-14H326 M326,410c7.75,0,14,6.25,14,14s-6.25,14-14,14H186c-7.75,0-14-6.25-14-14s6.25-14,14-14
		H326 M312,452c0,15.469-12.531,28-28,28h-56c-15.469,0-28-12.531-28-28H312 M256,0C161.156,0,84,77.156,84,172
		c0,47.625,15.563,74.969,29.25,99.125c11.625,20.438,21.688,38.156,25.281,71.094c0.344,7.313,2.438,14.188,5.844,20.219
		C141.563,368.375,140,375,140,382c0,7.562,1.813,14.688,5.063,21c-3.25,6.312-5.063,13.438-5.063,21
		c0,19.719,12.469,36.562,29.938,43.094C176.625,492.906,200.125,512,228,512h56c27.875,0,51.375-19.094,58.062-44.906
		C359.531,460.562,372,443.719,372,424c0-7.562-1.844-14.688-5.094-21c3.25-6.312,5.094-13.438,5.094-21
		c0-7-1.562-13.625-4.375-19.531c3.406-6.062,5.469-12.969,5.812-20.281c3.625-32.905,13.656-50.594,25.281-71.062
		C412.438,247,428,219.625,428,172C428,77.156,350.844,0,256,0L256,0z"/>
   </g>
	<g transform="translate(420.000000,450.000000) scale(0.05000,0.05000)" fill="#A00010" stroke="none">
	<path d="M256,32c77.312,0,140,62.688,140,140c0,76.125-45.875,85-54.5,168c0,7.75-6.25,14-14,14h-143c-7.75,0-14-6.25-14-14h-0.031
		C161.875,257,116,248.125,116,172C116,94.688,178.688,32,256,32 M326,368c7.75,0,14,6.25,14,14s-6.25,14-14,14H186
		c-7.75,0-14-6.25-14-14s6.25-14,14-14H326 M326,410c7.75,0,14,6.25,14,14s-6.25,14-14,14H186c-7.75,0-14-6.25-14-14s6.25-14,14-14
		H326 M312,452c0,15.469-12.531,28-28,28h-56c-15.469,0-28-12.531-28-28H312 M256,0C161.156,0,84,77.156,84,172
		c0,47.625,15.563,74.969,29.25,99.125c11.625,20.438,21.688,38.156,25.281,71.094c0.344,7.313,2.438,14.188,5.844,20.219
		C141.563,368.375,140,375,140,382c0,7.562,1.813,14.688,5.063,21c-3.25,6.312-5.063,13.438-5.063,21
		c0,19.719,12.469,36.562,29.938,43.094C176.625,492.906,200.125,512,228,512h56c27.875,0,51.375-19.094,58.062-44.906
		C359.531,460.562,372,443.719,372,424c0-7.562-1.844-14.688-5.094-21c3.25-6.312,5.094-13.438,5.094-21
		c0-7-1.562-13.625-4.375-19.531c3.406-6.062,5.469-12.969,5.812-20.281c3.625-32.905,13.656-50.594,25.281-71.062
		C412.438,247,428,219.625,428,172C428,77.156,350.844,0,256,0L256,0z"/>
   </g>
	<g transform="translate(424.000000,450.000000) scale(0.05000,0.05000)" fill="blue" stroke="none">
	<path d="M256,32c77.312,0,140,62.688,140,140c0,76.125-45.875,85-54.5,168c0,7.75-6.25,14-14,14h-143c-7.75,0-14-6.25-14-14h-0.031
		C161.875,257,116,248.125,116,172C116,94.688,178.688,32,256,32 M326,368c7.75,0,14,6.25,14,14s-6.25,14-14,14H186
		c-7.75,0-14-6.25-14-14s6.25-14,14-14H326 M326,410c7.75,0,14,6.25,14,14s-6.25,14-14,14H186c-7.75,0-14-6.25-14-14s6.25-14,14-14
		H326 M312,452c0,15.469-12.531,28-28,28h-56c-15.469,0-28-12.531-28-28H312 M256,0C161.156,0,84,77.156,84,172
		c0,47.625,15.563,74.969,29.25,99.125c11.625,20.438,21.688,38.156,25.281,71.094c0.344,7.313,2.438,14.188,5.844,20.219
		C141.563,368.375,140,375,140,382c0,7.562,1.813,14.688,5.063,21c-3.25,6.312-5.063,13.438-5.063,21
		c0,19.719,12.469,36.562,29.938,43.094C176.625,492.906,200.125,512,228,512h56c27.875,0,51.375-19.094,58.062-44.906
		C359.531,460.562,372,443.719,372,424c0-7.562-1.844-14.688-5.094-21c3.25-6.312,5.094-13.438,5.094-21
		c0-7-1.562-13.625-4.375-19.531c3.406-6.062,5.469-12.969,5.812-20.281c3.625-32.905,13.656-50.594,25.281-71.062
		C412.438,247,428,219.625,428,172C428,77.156,350.844,0,256,0L256,0z"/>
   </g>
	<g transform="translate(480.000000,400.000000) scale(0.05000,0.05000)" fill="#C00010" stroke="none">
	<path d="M256,32c77.312,0,140,62.688,140,140c0,76.125-45.875,85-54.5,168c0,7.75-6.25,14-14,14h-143c-7.75,0-14-6.25-14-14h-0.031
		C161.875,257,116,248.125,116,172C116,94.688,178.688,32,256,32 M326,368c7.75,0,14,6.25,14,14s-6.25,14-14,14H186
		c-7.75,0-14-6.25-14-14s6.25-14,14-14H326 M326,410c7.75,0,14,6.25,14,14s-6.25,14-14,14H186c-7.75,0-14-6.25-14-14s6.25-14,14-14
		H326 M312,452c0,15.469-12.531,28-28,28h-56c-15.469,0-28-12.531-28-28H312 M256,0C161.156,0,84,77.156,84,172
		c0,47.625,15.563,74.969,29.25,99.125c11.625,20.438,21.688,38.156,25.281,71.094c0.344,7.313,2.438,14.188,5.844,20.219
		C141.563,368.375,140,375,140,382c0,7.562,1.813,14.688,5.063,21c-3.25,6.312-5.063,13.438-5.063,21
		c0,19.719,12.469,36.562,29.938,43.094C176.625,492.906,200.125,512,228,512h56c27.875,0,51.375-19.094,58.062-44.906
		C359.531,460.562,372,443.719,372,424c0-7.562-1.844-14.688-5.094-21c3.25-6.312,5.094-13.438,5.094-21
		c0-7-1.562-13.625-4.375-19.531c3.406-6.062,5.469-12.969,5.812-20.281c3.625-32.905,13.656-50.594,25.281-71.062
		C412.438,247,428,219.625,428,172C428,77.156,350.844,0,256,0L256,0z"/>
   </g>
	<g transform="translate(484.000000,400.000000) scale(0.05000,0.05000)" fill="blue" stroke="none">
	<path d="M256,32c77.312,0,140,62.688,140,140c0,76.125-45.875,85-54.5,168c0,7.75-6.25,14-14,14h-143c-7.75,0-14-6.25-14-14h-0.031
		C161.875,257,116,248.125,116,172C116,94.688,178.688,32,256,32 M326,368c7.75,0,14,6.25,14,14s-6.25,14-14,14H186
		c-7.75,0-14-6.25-14-14s6.25-14,14-14H326 M326,410c7.75,0,14,6.25,14,14s-6.25,14-14,14H186c-7.75,0-14-6.25-14-14s6.25-14,14-14
		H326 M312,452c0,15.469-12.531,28-28,28h-56c-15.469,0-28-12.531-28-28H312 M256,0C161.156,0,84,77.156,84,172
		c0,47.625,15.563,74.969,29.25,99.125c11.625,20.438,21.688,38.156,25.281,71.094c0.344,7.313,2.438,14.188,5.844,20.219
		C141.563,368.375,140,375,140,382c0,7.562,1.813,14.688,5.063,21c-3.25,6.312-5.063,13.438-5.063,21
		c0,19.719,12.469,36.562,29.938,43.094C176.625,492.906,200.125,512,228,512h56c27.875,0,51.375-19.094,58.062-44.906
		C359.531,460.562,372,443.719,372,424c0-7.562-1.844-14.688-5.094-21c3.25-6.312,5.094-13.438,5.094-21
		c0-7-1.562-13.625-4.375-19.531c3.406-6.062,5.469-12.969,5.812-20.281c3.625-32.905,13.656-50.594,25.281-71.062
		C412.438,247,428,219.625,428,172C428,77.156,350.844,0,256,0L256,0z"/>
   </g>
	<g transform="translate(580.000000,320.000000) scale(0.05000,0.05000)" fill="blue" stroke="none">
	<path d="M256,32c77.312,0,140,62.688,140,140c0,76.125-45.875,85-54.5,168c0,7.75-6.25,14-14,14h-143c-7.75,0-14-6.25-14-14h-0.031
		C161.875,257,116,248.125,116,172C116,94.688,178.688,32,256,32 M326,368c7.75,0,14,6.25,14,14s-6.25,14-14,14H186
		c-7.75,0-14-6.25-14-14s6.25-14,14-14H326 M326,410c7.75,0,14,6.25,14,14s-6.25,14-14,14H186c-7.75,0-14-6.25-14-14s6.25-14,14-14
		H326 M312,452c0,15.469-12.531,28-28,28h-56c-15.469,0-28-12.531-28-28H312 M256,0C161.156,0,84,77.156,84,172
		c0,47.625,15.563,74.969,29.25,99.125c11.625,20.438,21.688,38.156,25.281,71.094c0.344,7.313,2.438,14.188,5.844,20.219
		C141.563,368.375,140,375,140,382c0,7.562,1.813,14.688,5.063,21c-3.25,6.312-5.063,13.438-5.063,21
		c0,19.719,12.469,36.562,29.938,43.094C176.625,492.906,200.125,512,228,512h56c27.875,0,51.375-19.094,58.062-44.906
		C359.531,460.562,372,443.719,372,424c0-7.562-1.844-14.688-5.094-21c3.25-6.312,5.094-13.438,5.094-21
		c0-7-1.562-13.625-4.375-19.531c3.406-6.062,5.469-12.969,5.812-20.281c3.625-32.905,13.656-50.594,25.281-71.062
		C412.438,247,428,219.625,428,172C428,77.156,350.844,0,256,0L256,0z"/>
   </g>
	<g transform="translate(730.000000,240.000000) scale(0.05000,0.05000)" fill="#000000" stroke="none">
	<path d="M256,32c77.312,0,140,62.688,140,140c0,76.125-45.875,85-54.5,168c0,7.75-6.25,14-14,14h-143c-7.75,0-14-6.25-14-14h-0.031
		C161.875,257,116,248.125,116,172C116,94.688,178.688,32,256,32 M326,368c7.75,0,14,6.25,14,14s-6.25,14-14,14H186
		c-7.75,0-14-6.25-14-14s6.25-14,14-14H326 M326,410c7.75,0,14,6.25,14,14s-6.25,14-14,14H186c-7.75,0-14-6.25-14-14s6.25-14,14-14
		H326 M312,452c0,15.469-12.531,28-28,28h-56c-15.469,0-28-12.531-28-28H312 M256,0C161.156,0,84,77.156,84,172
		c0,47.625,15.563,74.969,29.25,99.125c11.625,20.438,21.688,38.156,25.281,71.094c0.344,7.313,2.438,14.188,5.844,20.219
		C141.563,368.375,140,375,140,382c0,7.562,1.813,14.688,5.063,21c-3.25,6.312-5.063,13.438-5.063,21
		c0,19.719,12.469,36.562,29.938,43.094C176.625,492.906,200.125,512,228,512h56c27.875,0,51.375-19.094,58.062-44.906
		C359.531,460.562,372,443.719,372,424c0-7.562-1.844-14.688-5.094-21c3.25-6.312,5.094-13.438,5.094-21
		c0-7-1.562-13.625-4.375-19.531c3.406-6.062,5.469-12.969,5.812-20.281c3.625-32.905,13.656-50.594,25.281-71.062
		C412.438,247,428,219.625,428,172C428,77.156,350.844,0,256,0L256,0z"/>
   </g>
	<g transform="translate(540.000000,448.000000) scale(0.05000,0.05000)" fill="#A00010" stroke="none">
	<path d="M256,32c77.312,0,140,62.688,140,140c0,76.125-45.875,85-54.5,168c0,7.75-6.25,14-14,14h-143c-7.75,0-14-6.25-14-14h-0.031
		C161.875,257,116,248.125,116,172C116,94.688,178.688,32,256,32 M326,368c7.75,0,14,6.25,14,14s-6.25,14-14,14H186
		c-7.75,0-14-6.25-14-14s6.25-14,14-14H326 M326,410c7.75,0,14,6.25,14,14s-6.25,14-14,14H186c-7.75,0-14-6.25-14-14s6.25-14,14-14
		H326 M312,452c0,15.469-12.531,28-28,28h-56c-15.469,0-28-12.531-28-28H312 M256,0C161.156,0,84,77.156,84,172
		c0,47.625,15.563,74.969,29.25,99.125c11.625,20.438,21.688,38.156,25.281,71.094c0.344,7.313,2.438,14.188,5.844,20.219
		C141.563,368.375,140,375,140,382c0,7.562,1.813,14.688,5.063,21c-3.25,6.312-5.063,13.438-5.063,21
		c0,19.719,12.469,36.562,29.938,43.094C176.625,492.906,200.125,512,228,512h56c27.875,0,51.375-19.094,58.062-44.906
		C359.531,460.562,372,443.719,372,424c0-7.562-1.844-14.688-5.094-21c3.25-6.312,5.094-13.438,5.094-21
		c0-7-1.562-13.625-4.375-19.531c3.406-6.062,5.469-12.969,5.812-20.281c3.625-32.905,13.656-50.594,25.281-71.062
		C412.438,247,428,219.625,428,172C428,77.156,350.844,0,256,0L256,0z"/>
   </g>
	<g transform="translate(350.000000,515.000000) scale(0.03000,0.03000)" fill="blue" stroke="none">
	<path d="M256,32c77.312,0,140,62.688,140,140c0,76.125-45.875,85-54.5,168c0,7.75-6.25,14-14,14h-143c-7.75,0-14-6.25-14-14h-0.031
		C161.875,257,116,248.125,116,172C116,94.688,178.688,32,256,32 M326,368c7.75,0,14,6.25,14,14s-6.25,14-14,14H186
		c-7.75,0-14-6.25-14-14s6.25-14,14-14H326 M326,410c7.75,0,14,6.25,14,14s-6.25,14-14,14H186c-7.75,0-14-6.25-14-14s6.25-14,14-14
		H326 M312,452c0,15.469-12.531,28-28,28h-56c-15.469,0-28-12.531-28-28H312 M256,0C161.156,0,84,77.156,84,172
		c0,47.625,15.563,74.969,29.25,99.125c11.625,20.438,21.688,38.156,25.281,71.094c0.344,7.313,2.438,14.188,5.844,20.219
		C141.563,368.375,140,375,140,382c0,7.562,1.813,14.688,5.063,21c-3.25,6.312-5.063,13.438-5.063,21
		c0,19.719,12.469,36.562,29.938,43.094C176.625,492.906,200.125,512,228,512h56c27.875,0,51.375-19.094,58.062-44.906
		C359.531,460.562,372,443.719,372,424c0-7.562-1.844-14.688-5.094-21c3.25-6.312,5.094-13.438,5.094-21
		c0-7-1.562-13.625-4.375-19.531c3.406-6.062,5.469-12.969,5.812-20.281c3.625-32.905,13.656-50.594,25.281-71.062
		C412.438,247,428,219.625,428,172C428,77.156,350.844,0,256,0L256,0z"/>
   </g>
	<g transform="translate(435.000000,515.000000) scale(0.03000,0.03000)" fill="#A00010" stroke="none">
	<path d="M256,32c77.312,0,140,62.688,140,140c0,76.125-45.875,85-54.5,168c0,7.75-6.25,14-14,14h-143c-7.75,0-14-6.25-14-14h-0.031
		C161.875,257,116,248.125,116,172C116,94.688,178.688,32,256,32 M326,368c7.75,0,14,6.25,14,14s-6.25,14-14,14H186
		c-7.75,0-14-6.25-14-14s6.25-14,14-14H326 M326,410c7.75,0,14,6.25,14,14s-6.25,14-14,14H186c-7.75,0-14-6.25-14-14s6.25-14,14-14
		H326 M312,452c0,15.469-12.531,28-28,28h-56c-15.469,0-28-12.531-28-28H312 M256,0C161.156,0,84,77.156,84,172
		c0,47.625,15.563,74.969,29.25,99.125c11.625,20.438,21.688,38.156,25.281,71.094c0.344,7.313,2.438,14.188,5.844,20.219
		C141.563,368.375,140,375,140,382c0,7.562,1.813,14.688,5.063,21c-3.25,6.312-5.063,13.438-5.063,21
		c0,19.719,12.469,36.562,29.938,43.094C176.625,492.906,200.125,512,228,512h56c27.875,0,51.375-19.094,58.062-44.906
		C359.531,460.562,372,443.719,372,424c0-7.562-1.844-14.688-5.094-21c3.25-6.312,5.094-13.438,5.094-21
		c0-7-1.562-13.625-4.375-19.531c3.406-6.062,5.469-12.969,5.812-20.281c3.625-32.905,13.656-50.594,25.281-71.062
		C412.438,247,428,219.625,428,172C428,77.156,350.844,0,256,0L256,0z"/>
   </g>
</svg>
